<svg xmlns="http://www.w3.org/2000/svg" width="1038" height="289"><path d="M222 8h73l1 152c5.727-8.59 11.431-17.15 16.938-25.875a2648.919 2648.919 0 0 1 15.511-24.188c1.74-2.682 3.472-5.37 5.196-8.062l1.268-1.98c.788-1.232 1.574-2.463 2.36-3.696C339.89 92.11 339.89 92.11 341 91c2.343-.095 4.655-.126 6.998-.114h2.217c2.43 0 4.86.009 7.289.016l5.04.005c4.43.003 8.861.013 13.292.024 4.517.01 9.035.015 13.553.02 8.87.01 17.74.028 26.611.049-1.29 3.318-2.62 6.156-4.652 9.082l-1.587 2.3-1.699 2.43-1.76 2.547a2867.194 2867.194 0 0 1-3.586 5.17c-2.46 3.543-4.9 7.101-7.341 10.659l-2.695 3.917a26251.067 26251.067 0 0 0-10.922 15.883c-1.86 2.706-3.72 5.411-5.578 8.117l-1.41 2.05a1465.97 1465.97 0 0 0-2.76 4.034c-2.191 3.208-4.414 6.38-6.737 9.495l-1.29 1.763a485.768 485.768 0 0 1-3.499 4.686c-1.863 3.6-1.442 4.985-.484 8.867 1.253 2.615 1.253 2.615 2.93 5.148.62.989 1.24 1.978 1.88 2.996l2.065 3.231a2421.43 2421.43 0 0 1 4.402 7.031l1.164 1.858c4.455 7.13 8.724 14.37 12.997 21.611a2808.25 2808.25 0 0 0 19.76 32.952l5.013 8.235c2.458 4.037 4.91 8.078 7.351 12.125l2.067 3.418C421 283 421 283 421 284h-82l-14-25-6.938-11.875C310.527 234.187 303.272 221.088 296 208l-1 76h-73V8zM706.5 98.777c13.517 12.018 20.048 29.478 21.5 47.223.138 4.526.126 9.049.114 13.576v4.082c0 3.673-.006 7.346-.013 11.02-.006 3.846-.006 7.692-.008 11.538-.003 7.275-.01 14.549-.021 21.823-.013 9.836-.019 19.672-.024 29.509-.01 15.484-.03 30.968-.048 46.452h-73l-.148-24.805c-.04-5.856-.081-11.713-.124-17.569-.056-7.58-.108-15.159-.15-22.738-.036-6.646-.083-13.292-.136-19.938-.019-2.532-.034-5.064-.045-7.595-.017-3.555-.046-7.109-.078-10.663l-.007-3.15c-.112-9.892-.715-20.047-8.125-27.292-6.897-4.87-13.998-5.01-22.187-4.25-7.179 1.64-12.052 4.765-16 11-2.943 5.434-4.111 10.827-4.158 16.967l-.03 2.953-.017 3.204-.03 3.401a6034 6034 0 0 0-.081 11.12l-.063 7.713c-.05 6.074-.095 12.147-.138 18.221-.055 7.596-.116 15.19-.176 22.786-.109 13.545-.207 27.09-.307 40.635h-74V91h74l1 26 4-5.063c12.188-14.803 27.535-23.073 46.578-25.624 18.694-1.708 36.755.67 51.922 12.464zM106.75 85.688l3.708.014c23.958.31 48.378 6.963 66.542 23.298l2.672 2.39C196.949 127.714 204.686 148.8 208 172v32H74c3.094 13.409 5.468 22.043 16.813 29.688 8.526 5.039 18.4 5.588 28.035 3.777 7.857-2.169 12.873-5.325 17.074-12.367 1.179-2.294 2.12-4.704 3.078-7.098h68c0 7.895 0 7.895-.883 11.016l-.589 2.085-.653 2.149-.685 2.262c-6.06 19.198-19.435 33.037-37.002 42.3-31.782 14.893-72.558 16.016-105.633 4.73C50.315 278.451 40.093 272.814 31 265l-2.004-1.57C11.723 249.435 2.574 226.553 0 205c-.293-5.253-.341-10.491-.313-15.75l.007-2.143C-.175 160.254 7.237 138.414 25 118l1.566-1.82c20.14-21.704 51.462-30.63 80.184-30.493zM85 141c-6.066 6.414-11 15.986-11 25h62c0-10.248-2.338-18.074-9-26-12.39-10.067-29.905-8.777-42 1zM924.313 110.688C942.55 126.707 953.03 147.968 956 172c1.517 23.494-.236 44.923-11 66l-1.398 2.754c-12.437 22.393-34.02 36.752-58.11 43.992-1.495.425-2.993.843-4.492 1.254l-1.972.543c-29.969 7.775-64.478 2.746-91.716-11.566-20.552-12.264-36.454-31.058-42.527-54.47C742.83 212.425 741.28 204.33 741 196l-.121-3.18c-.538-27.932 6.781-53.827 25.785-74.754 39.491-40.992 114.157-43.714 157.649-7.379zm-99.13 39.097c-8.244 10.063-9.387 22.204-9.423 34.695-.01 1.986-.041 3.972-.072 5.958-.055 13.59 1.772 25.813 10.87 36.37 6.114 5.88 14.089 8.367 22.442 8.692 8.809-.332 16.867-3.075 23-9.5 11.36-14.844 11.43-35.526 9.25-53.313-1.92-11.505-5.256-19.883-14.25-27.687-12.977-8.576-30.93-5.913-41.816 4.785zM429 91h73v193h-73V91zM491 9c7.4 6.578 12.458 16.111 13.238 26.031.286 13.373-2.83 23.194-12.05 32.871-8.668 8.266-18.866 10.484-30.516 10.375-9.724-.734-18.87-5.323-25.645-12.312C428.675 57.114 424.955 46.548 426 35c1.844-11.455 6.83-20.733 16-28 15.848-9.925 33.965-9.308 49 2zM1020 217c6.824 4.962 11.563 10.297 15 18l1.25 2.688c3.386 10.438 1.98 21.126-2.469 31.023-5.604 10.12-13.665 16.343-24.57 19.867-10.895 2.08-21.875.818-31.414-4.898-8.57-5.986-14.85-13.8-17.379-24.035-1.8-11.395-.282-21.125 5.582-31.02l2-2.625 1.793-2.434c2.32-2.697 4.516-4.363 7.52-6.254l2.738-1.761c11.95-6.284 28.558-5.664 39.949 1.449z" fill="#222"/></svg>